<?xml version="1.0" encoding="UTF-8"?>
<svg id="Layer_1" xmlns="http://www.w3.org/2000/svg" version="1.1" viewBox="0 0 256 256">
  <!-- Generator: Adobe Illustrator 29.5.0, SVG Export Plug-In . SVG Version: 2.1.0 Build 137)  -->
  <defs>
    <style>
      .st0 {
        fill: #00979c;
      }
    </style>
  </defs>
  <path class="st0" d="M14.04,171.4L.92,214.24h10.33l2.37-7.98h12.8l2.31,7.98h11.23l-13.12-42.84h-12.79ZM16.21,197.64l3.9-13.33,3.86,13.33h-7.75Z"/>
  <path class="st0" d="M64.63,194.7c-.16-.17-.31-.32-.47-.47.32-.12.64-.25.95-.39,1.25-.57,2.35-1.34,3.26-2.28.92-.95,1.64-2.09,2.15-3.39.5-1.29.75-2.77.75-4.39,0-2.24-.4-4.18-1.2-5.77-.81-1.6-1.97-2.92-3.46-3.92-1.45-.97-3.21-1.67-5.23-2.08-1.95-.4-4.14-.6-6.51-.6h-13.4v42.84h10.27v-16.74h.31c1.12,0,2.06.25,2.86.76.8.51,1.41,1.25,1.87,2.28l6.21,13.7h11.95l-7.54-15.28c-.91-1.86-1.82-3.25-2.76-4.26h0ZM60.16,186.48c-.3.57-.71,1.03-1.26,1.42-.58.41-1.3.72-2.15.93-.89.22-1.91.33-3.02.33h-2v-9.02h2.26c2.35,0,4.1.37,5.19,1.1.95.63,1.42,1.71,1.42,3.27,0,.76-.14,1.4-.44,1.96h0Z"/>
  <path class="st0" d="M105.04,176.49c-1.73-1.74-3.91-3.04-6.49-3.87-2.51-.81-5.46-1.22-8.77-1.22h-13.59v42.84h11.83c3.82,0,7.16-.52,9.92-1.54,2.81-1.04,5.16-2.55,6.97-4.48,1.81-1.93,3.17-4.29,4.02-7.01.83-2.66,1.26-5.66,1.26-8.9,0-3.54-.42-6.64-1.26-9.22-.85-2.64-2.16-4.87-3.89-6.61h0ZM96.64,202.52c-1.78,1.98-4.37,2.94-7.91,2.94h-2.26v-25.3h2.8c1.98,0,3.64.28,4.94.83,1.26.53,2.23,1.29,2.97,2.31.76,1.04,1.31,2.35,1.64,3.89.34,1.63.52,3.51.52,5.6,0,4.46-.91,7.73-2.7,9.72h0Z"/>
  <path class="st0" d="M134.94,198.65c0,1.48-.14,2.74-.41,3.74-.25.94-.62,1.71-1.11,2.28-.46.55-1.03.94-1.73,1.19-.76.27-1.73.41-2.89.41-1.23,0-2.24-.16-3.01-.47-.74-.3-1.33-.73-1.82-1.31-.49-.58-.83-1.32-1.04-2.18-.22-.96-.34-2.08-.34-3.35v-27.56h-10.27v28.03c0,2.32.29,4.44.85,6.32.59,1.95,1.56,3.63,2.88,5.01,1.32,1.37,3.06,2.43,5.15,3.15,2.03.7,4.49,1.06,7.3,1.06,2.51,0,4.82-.35,6.86-1.06,2.08-.71,3.87-1.79,5.33-3.21,1.46-1.42,2.59-3.21,3.36-5.32.76-2.07,1.15-4.49,1.15-7.21v-26.76h-10.27v27.26"/>
  <path class="st0" d="M150.47,180.02h9.22v25.54h-9.22v8.68h28.84v-8.68h-9.22v-25.54h9.22v-8.62h-28.84v8.62"/>
  <path class="st0" d="M207.9,195.81l-11.49-24.41h-11.63v42.84h9.57v-24.88l11.55,24.88h11.57v-42.84h-9.57v24.41"/>
  <path class="st0" d="M250.74,176.47c-3-3.82-7.5-5.75-13.36-5.75-2.51,0-4.9.45-7.12,1.32-2.24.89-4.22,2.27-5.89,4.12-1.65,1.83-2.96,4.18-3.9,6.99-.92,2.77-1.39,6.09-1.39,9.88,0,6.99,1.49,12.43,4.42,16.17,3,3.83,7.5,5.76,13.36,5.76,2.51,0,4.91-.45,7.12-1.32,2.24-.89,4.23-2.27,5.89-4.12,1.65-1.83,2.96-4.18,3.9-6.99.92-2.77,1.39-6.09,1.39-9.88,0-7.01-1.49-12.45-4.42-16.18h0ZM243.98,198.73c-.29,1.58-.75,2.91-1.36,3.96-.58,1-1.3,1.73-2.19,2.24-.89.5-2,.76-3.3.76-2.57,0-4.36-.96-5.47-2.92-1.22-2.16-1.85-5.56-1.85-10.12,0-2.14.15-4.06.46-5.71.29-1.58.76-2.91,1.38-3.96.59-1,1.31-1.74,2.2-2.24.88-.5,1.98-.76,3.28-.76,2.59,0,4.38.95,5.49,2.92,1.21,2.16,1.83,5.57,1.83,10.12,0,2.14-.15,4.06-.46,5.71h0Z"/>
  <path class="st0" d="M190.27,161.33c-16.29,0-30.21-5.49-42.47-16.73-7.57-6.94-13.81-15.44-19.56-24.27-5.74,8.84-11.98,17.34-19.55,24.27-13.17,12.07-28.27,17.51-46.15,16.63-34.1-.15-61.8-27.06-61.8-60.12s27.85-60.12,62.08-60.12c18.73,0,34.5,6.2,48.21,18.95,6.58,6.12,12.14,13.23,17.21,20.66,5.07-7.43,10.63-14.54,17.21-20.66,13.71-12.75,29.48-18.95,48.21-18.95,34.23,0,62.08,26.97,62.08,60.12s-27.7,59.97-61.8,60.12c-1.24.06-2.47.09-3.68.09h0ZM140.72,100.32c6.79,11.02,13.39,21.28,21.42,28.64,9.07,8.31,18.62,11.73,30.98,11.07h.56c22.53-.01,40.86-17.46,40.86-38.91s-18.33-38.9-40.86-38.9c-13.3,0-24.03,4.22-33.76,13.27-7.27,6.76-13.27,15.42-19.19,24.83h0ZM62.83,62.22c-22.53,0-40.86,17.45-40.86,38.9s18.33,38.9,40.86,38.9h.56c12.35.67,21.91-2.75,30.97-11.06,8.03-7.36,14.63-17.62,21.42-28.64-5.93-9.41-11.93-18.07-19.19-24.83-9.73-9.05-20.46-13.27-33.76-13.27h0Z"/>
  <path class="st0" d="M196.48,93.41v-11.51h-11.98v11.51h-11.51v11.92h11.51v11.59h11.98v-11.59h11.51v-11.92h-11.51"/>
  <path class="st0" d="M45.6,93.26h37.82v12.29h-37.82v-12.29Z"/>
</svg>